<?xml version="1.0" encoding="UTF-8" standalone="no"?>
<svg
   xmlns:dc="http://purl.org/dc/elements/1.1/"
   xmlns:cc="http://creativecommons.org/ns#"
   xmlns:rdf="http://www.w3.org/1999/02/22-rdf-syntax-ns#"
   xmlns:svg="http://www.w3.org/2000/svg"
   xmlns="http://www.w3.org/2000/svg"
   xmlns:sodipodi="http://sodipodi.sourceforge.net/DTD/sodipodi-0.dtd"
   xmlns:inkscape="http://www.inkscape.org/namespaces/inkscape"
   version="1.1"
   id="svg2"
   viewBox="0 0 476.31901 231.60601"
   height="231.606"
   width="476.319"
   inkscape:version="0.91 r13725"
   sodipodi:docname="logo2.svg">
  <sodipodi:namedview
     pagecolor="#ffffff"
     bordercolor="#666666"
     borderopacity="1"
     objecttolerance="10"
     gridtolerance="10"
     guidetolerance="10"
     inkscape:pageopacity="0"
     inkscape:pageshadow="2"
     inkscape:window-width="1280"
     inkscape:window-height="960"
     id="namedview19"
     showgrid="false"
     inkscape:zoom="0.46354778"
     inkscape:cx="669.33802"
     inkscape:cy="516.09026"
     inkscape:window-x="-8"
     inkscape:window-y="-8"
     inkscape:window-maximized="1"
     inkscape:current-layer="g3736" />
  <defs
     id="defs4" />
  <metadata
     id="metadata7">
    <rdf:RDF>
      <cc:Work
         rdf:about="">
        <dc:format>image/svg+xml</dc:format>
        <dc:type
           rdf:resource="http://purl.org/dc/dcmitype/StillImage" />
        <dc:title></dc:title>
      </cc:Work>
    </rdf:RDF>
  </metadata>
  <g
     id="g3736"
     transform="translate(-986.52498,-3387.7848)">
    <g
       id="g3360"
       transform="translate(-121.86572,292.975)">
      <path
         id="path3567"
         d="m 1252.6145,3155.9092 c 140.9503,168.0156 0,0 140.9503,168.0156 -43.5494,0.4537 0,0 -43.5494,0.4537 l -96.975,-112.5 -98.0499,114 c -46.5998,0.5373 0,0 -46.5998,0.5373 z"
         style="fill:#6f7072"
         inkscape:connector-curvature="0" />
      <path
         id="path3565"
         d="m 1394.4112,3170.2611 -57.3494,66.1174 -31.7617,-37.4562 87.6763,-104.1122 c 28.935,33.0614 53.7263,65.1802 78.5052,93.0684 0.028,-17.5 0.055,-35 0.083,-52.5 l 32,0 0,91.2106 81.1449,96.7894 -59.6449,-0.085 z"
         style="fill:#9bc62e"
         inkscape:connector-curvature="0" />
      <path
         id="path3563"
         d="m 1230.5648,3288.3785 c 5.6667,0 11.3333,0 17,0 0,5.6667 0,11.3333 0,17 l -17,0 c 0,-5.6667 0,-11.3333 0,-17 z"
         style="fill:#6f7072"
         inkscape:connector-curvature="0" />
      <path
         id="path3561"
         d="m 1254.5648,3288.3785 c 17,0 0,0 17,0 0,17 0,0 0,17 -17,0 0,0 -17,0 0,-17 0,0 0,-17 z"
         style="fill:#6f7072"
         inkscape:connector-curvature="0" />
      <path
         id="path3559"
         d="m 1396.5648,3275.3786 23,-1e-4 0,22 -23,0 z"
         style="fill:#9bc62e"
         inkscape:connector-curvature="0" />
      <path
         id="path3557"
         d="m 1369.7933,3275.3786 16.7715,0 0,19.378 c -16.7715,-19.378 0,0 -16.7715,-19.378 z"
         style="fill:#9bc62e"
         inkscape:connector-curvature="0" />
      <path
         id="path3555"
         d="m 1230.5648,3259.3785 c 5.6667,0 11.3333,0 17,0 0,6 0,12 0,18 -5.6667,0 -11.3333,0 -17,0 0,-6 0,-12 0,-18 z"
         style="fill:#6f7072"
         inkscape:connector-curvature="0" />
      <path
         id="path3553"
         d="m 1254.5648,3259.3785 c 17,0 0,0 17,0 0,18 0,0 0,18 -17,0 0,0 -17,0 0,-18 0,0 0,-18 z"
         style="fill:#6f7072"
         inkscape:connector-curvature="0" />
      <path
         id="path3551"
         d="m 1363.5648,3236.3785 23,0 0,23.0001 -23,-1e-4 z"
         style="fill:#9bc62e"
         inkscape:connector-curvature="0" />
      <path
         id="path3733"
         d="m 1396.5648,3236.3785 23,0 0,23 -23,0 z"
         style="fill:#9bc62e"
         inkscape:connector-curvature="0" />
    </g>
  </g>
</svg>
