<?xml version="1.0" encoding="UTF-8" standalone="no"?>
<svg
   xmlns:dc="http://purl.org/dc/elements/1.1/"
   xmlns:cc="http://creativecommons.org/ns#"
   xmlns:rdf="http://www.w3.org/1999/02/22-rdf-syntax-ns#"
   xmlns:svg="http://www.w3.org/2000/svg"
   xmlns="http://www.w3.org/2000/svg"
   xmlns:xlink="http://www.w3.org/1999/xlink"
   version="1.1"
   id="logo"
   viewBox="0 0 720 720"
   height="720"
   width="720">
  <defs
     id="defs4" />
  <g
     transform="translate(0,-332.36216)"
     id="layer1">
    <g
       transform="translate(-986.52498,-2567.0286)"
       id="g3736">
      <path
         d="m 1639.5645,3337.3789 0.035,0.75 c 0.019,0.4125 0.6133,1.79 1.3184,3.0606 l 1.2812,2.3085 2.9336,1.9336 0,-0 2.9317,1.9336 6.3007,0.01 6.2989,0.01 2.8906,-1.4942 2.8887,-1.4941 1.5605,-2.2285 c 0.8583,-1.2255 1.5606,-2.8033 1.5606,-3.5059 l 0,-1.2773 -3.75,0.035 -3.75,0.035 -2.5,1.4277 -2.5,1.4297 -2.5586,0.035 -2.5586,0.035 -1.9414,-1.4687 -1.9414,-1.4668 -4.25,-0.033 -4.25,-0.031 z m -435,2 0,9.3926 0,9.3906 -3.711,-1.8906 -3.7109,-1.8926 -4.3399,0 -4.3379,0 -2.6992,1.4102 c -1.4852,0.7759 -3.9151,2.6884 -5.3984,4.25 l -2.6953,2.8398 -1.5547,3.7168 -1.5527,3.7188 0,5.3203 0,5.3203 2.25,4.4043 2.25,4.4023 3.7402,2.9766 3.7402,2.9746 5.2598,0.3984 5.2598,0.3985 3.75,-1.9571 3.75,-1.9589 0,8.8925 0,8.8926 5,0 5,0 0,-9.0215 0,-9.0195 3.9589,2.0195 3.961,2.0215 3.5722,0 3.5723,0 3.2168,-1.3613 3.2188,-1.3594 2.8886,-2.8906 2.8907,-2.8887 1.5058,-3.5 1.5059,-3.5 -0.068,-6.1406 -0.07,-6.1406 -2.0664,-4.0508 -2.0664,-4.0528 -3.582,-2.7304 -3.5821,-2.7325 -5.3887,-0.4472 -5.3906,-0.4473 -4.0371,2.1055 -4.039,2.1035 0,-9.4824 0,-9.4844 -5,0 -5,0 z m 254.5,0.5488 -5.2793,2.3614 -5.2793,2.3613 -4.2813,4.7617 -4.2812,4.7617 -1.1895,3.9688 -1.1894,3.9687 0,6.2676 0,6.2676 1.1757,3.9258 1.1758,3.9238 3.9395,4.4746 3.9375,4.4746 3.1289,1.6192 c 1.721,0.89 4.2582,1.9868 5.6367,2.4375 l 2.5059,0.8183 8.5703,-0.2695 8.5703,-0.2715 4.4297,-2.6055 c 2.4366,-1.433 5.4411,-3.6875 6.6757,-5.0097 l 2.2442,-2.4043 -3.3652,-3.2618 -3.3653,-3.2617 -4.7109,3.3223 -4.711,3.3203 -7.2421,0 -7.2422,0 -3.6914,-2.5 -3.6914,-2.5 -1.9844,-4.0664 -1.9863,-4.0645 0,-4.3691 0,-4.3691 2.121,-4.3809 2.1211,-4.3828 3.6289,-2.3672 3.629,-2.3652 3.5917,-0.6485 3.5899,-0.6504 4.4101,1.1602 4.4083,1.1582 3.8535,3.0527 3.8535,3.0528 3.6465,-3.6973 3.6465,-3.6973 -3.4336,-2.9082 c -1.8886,-1.6002 -5.4886,-3.9017 -8,-5.1132 l -4.5664,-2.2032 -7.5,-0.045 -7.5,-0.047 z m -431.5,1.4512 0,54 11,0 0,-45 18,0 0,45 10,0 0,-54 -39,0 z m 226,0 0,27 0,27 10.5332,0 10.5312,0 3.2188,-1.3769 3.2168,-1.377 3,-3.1895 3,-3.1875 0,-7.3613 0,-7.3613 -2.1036,-2.8242 c -1.1575,-1.5528 -3.4478,-3.6086 -5.0898,-4.5703 l -2.9863,-1.75 -6.1602,-0.6426 -6.1601,-0.6445 0,-4.8575 0,-4.8574 9,0 9,0 0,-5 0,-5 -14.5,0 -14.5,0 z m -111.7403,12.7832 -3.6074,1.7109 -3.6055,1.711 -3.457,3.8262 -3.457,3.8261 -1.0606,3.8223 c -1.3355,4.8094 -1.338,7.8215 -0.012,12.5976 l 1.0488,3.7774 3.1875,3.6289 3.1856,3.6309 4.0097,1.8828 4.0079,1.8847 6.1406,-0.416 6.1387,-0.4179 4.5117,-3.1036 4.5117,-3.1054 2.0996,-4.336 2.0977,-4.3359 0,-5.4707 0,-5.4727 -2.25,-4.4492 -2.25,-4.4473 -4.2696,-2.9687 -4.2715,-2.9668 -6.3496,-0.4043 -6.3496,-0.4043 z m 262.8164,0 -4.4941,2.1757 -4.4942,2.1739 -2.9882,3.4062 -2.9903,3.4043 -1.0488,3.7774 c -1.3146,4.7332 -1.323,7.7885 -0.037,12.4179 l 1.0098,3.6387 3.7343,4.1641 3.7325,4.1621 4,1.4648 4,1.4649 6.6757,-0.3789 6.6758,-0.379 4.457,-2.6132 4.4571,-2.6114 0.5527,-1.4375 0.5508,-1.4375 -3.6914,-2.4414 -3.6895,-2.4433 -2.8183,2.1035 -2.8164,2.1035 -4.7207,0 -4.7207,0 -2.7891,-1.8281 -2.7891,-1.8281 -1.4765,-3.5332 -1.4766,-3.5333 1.3106,-4.0507 1.3086,-4.0489 2.5234,-1.8652 2.5234,-1.8652 3.6621,-0.5938 3.6621,-0.5937 4.5684,2.209 4.5664,2.2109 3.2481,-1.8965 3.2461,-1.8965 0,-1.3965 0,-1.3964 -4.3125,-3.0313 -4.3125,-3.0312 -7.4004,-0.3731 -7.3985,-0.373 z m 207.4239,0.061 -6.6934,0.3574 -6.6934,0.3555 -3.8066,3.0625 c -2.0935,1.6849 -4.7961,4.5182 -6.0059,6.2949 l -2.1992,3.2305 -0.6699,4.4648 -0.6699,4.4649 1.2187,4.3554 1.2207,4.3555 3.0782,3.7363 3.08,3.7344 4.0703,1.9043 4.0704,1.9043 5.5527,-0.332 5.5527,-0.334 3.9473,-2.0391 3.9473,-2.039 3,-4.2481 3,-4.2461 0,-7.8281 0,-7.8281 -3,-4.2598 -3,-4.2598 -4.5,-2.4023 -4.5,-2.4043 z m -517.2207,0.1543 -3.6387,2.4688 -3.6406,2.4707 0,-1.9707 0,-1.9688 -5,0 -5,0 0,27.5 0,27.5 5,0 5,0 0,-9.5684 0,-9.5683 3.1289,2.2266 3.1269,2.2285 4.8067,0.4609 4.8066,0.4629 4.6797,-2.2656 4.6777,-2.2657 2.8457,-4.4843 2.8438,-4.4864 0.6504,-4.3359 0.6503,-4.334 -1.2343,-5.1445 -1.2344,-5.1426 -3.0215,-3.4433 c -1.6625,-1.8936 -4.2831,-4.0938 -5.8242,-4.8907 l -2.8027,-1.4492 -5.4102,0 -5.4101,0 z m 218,0 -3.6387,2.4688 -3.6406,2.4707 0,-1.9707 0,-1.9688 -5,0 -5,0 0,27.5 0,27.5 5,0 5,0 0,-9.5684 0,-9.5683 3.1289,2.2266 3.1269,2.2285 4.8067,0.4609 4.8066,0.4629 4.6797,-2.2656 4.6777,-2.2657 2.8457,-4.4843 2.8438,-4.4864 0.6504,-4.3359 0.6503,-4.334 -1.2343,-5.1445 -1.2344,-5.1426 -3.1074,-3.541 -3.1094,-3.541 -3.2324,-1.3496 -3.2344,-1.3516 -4.8926,0 -4.8925,0 z m 242,0 -3.6387,2.4688 -3.6406,2.4707 0,-1.9707 0,-1.9688 -5,0 -5,0 0,27.5 0,27.5 5,0 5,0 0,-9.5684 0,-9.5683 3.1289,2.2266 3.1269,2.2285 4.8067,0.4609 4.8066,0.4629 4.6797,-2.2656 4.6777,-2.2657 2.8457,-4.4843 2.8438,-4.4864 0.6504,-4.3359 0.6503,-4.334 -1.2343,-5.1445 -1.2344,-5.1426 -3.0215,-3.4433 c -1.6625,-1.8936 -4.2831,-4.0938 -5.8242,-4.8907 l -2.8027,-1.4492 -5.4102,0 -5.4101,0 z m -60.2793,1 0,4.5 0,4.5 7,0 7,0 0,15.5 0,15.5 5,0 5,0 0,-15.5 0,-15.5 6.5,0 6.5,0 0,-4.5 0,-4.5 -18.5,0 -18.5,0 z m 142,0 0,20 0,19.9981 2.8339,0 2.834,0 9.416,-10.9981 c 5.1791,-6.0486 9.7536,-11 10.1661,-11 l 0.75,0 0,11 0,11 4.5,0 4.5,0 0,-20 0,-20 -2.4102,0 -2.4102,0 -9.8398,11.4121 -9.8398,11.4141 -0.2813,-11.4141 -0.2812,-11.4121 -4.9688,0 -4.9687,0 z m -289.7989,0.1973 c -2.8602,-0.1662 -5.2011,-0.07 -5.2011,0.2148 0,0.2847 3.3647,8.5943 7.4765,18.4649 l 7.4766,17.9472 -3.9766,8.6055 c -2.1868,4.7335 -3.9765,8.8468 -3.9765,9.1406 l 0,0.5332 5.1152,-0.3027 5.1152,-0.3008 12.3848,-26.9375 c 6.8119,-14.8152 12.3848,-27.1016 12.3848,-27.3027 0,-0.2007 -2.3404,-0.2287 -5.2012,-0.062 l -5.2012,0.3027 -5.0488,11.0078 c -2.7767,6.055 -5.416,11.23 -5.8653,11.5 l -0.8164,0.4922 -4.7343,-11.5 -4.7325,-11.5 -5.1992,-0.3027 z m -199.3047,7.5176 2.9805,1.2324 c 1.6388,0.6788 3.7253,2.0593 4.6367,3.0664 l 1.6563,1.8301 0.5449,4.0585 0.543,4.0586 -1.2285,2.9707 -1.2305,2.9707 -2.1641,1.418 c -1.1899,0.7797 -3.5064,1.6955 -5.1484,2.0371 l -2.9863,0.6211 -3.1778,-1.5801 -3.1797,-1.58 -1.6816,-3.5411 -1.6797,-3.541 0.5332,-3.2871 0.5332,-3.2871 1.6875,-2.5742 1.6856,-2.5742 3.8378,-1.1504 3.8379,-1.1484 z m 48.0371,0.014 3.0801,1.2774 3.0801,1.2754 1.4531,2.8086 1.4532,2.8105 0,4.6152 0,4.6153 -1.0293,1.9238 -1.0293,1.9238 -2.9219,1.5117 c -3.838,1.9847 -5.867,1.8995 -9.6387,-0.4003 l -3.1191,-1.9024 -1.1309,-3.2422 c -0.6219,-1.7838 -1.1308,-4.4606 -1.1308,-5.9472 l 0,-2.7032 2.2675,-3.3652 2.2696,-3.3652 3.1972,-0.918 3.1992,-0.918 z m 122.2891,0.01 3.4434,1.6426 3.4453,1.6425 1.5097,3.6172 1.5118,3.6172 -0.6328,3.75 -0.6348,3.75 -2.7754,2.6602 -2.7773,2.6601 -3.4063,0.5117 -3.4062,0.5098 -3.1856,-1.9941 -3.1855,-1.9942 -1.0645,-1.9883 -1.0644,-1.9882 0,-4.4883 0,-4.4903 2.5605,-3.0429 2.5605,-3.041 3.5508,-0.6661 3.5508,-0.6679 z m 290.7266,0.053 3.2734,1.9102 3.2734,1.9121 1.2364,2.4453 1.2383,2.4453 0.014,3.2988 0.016,3.3008 -1.5665,3.0293 -1.5664,3.0274 -3.4004,1.4218 -0,0 c -1.8708,0.7816 -3.7534,1.3602 -4.1836,1.2852 -0.4302,-0.075 -1.7599,-0.3258 -2.9551,-0.5586 l -2.1718,-0.4238 -2.5137,-2.5137 -2.5137,-2.5137 -0.6426,-2.9277 -0.6426,-2.9258 0.6407,-2.9219 0.6426,-2.9199 2.3281,-2.5137 2.3301,-2.5136 3.5839,-0.6719 3.5821,-0.6719 z m -514.1485,0.2129 3.1485,0 3.1504,0 2.8164,1.4551 2.8144,1.457 1.7442,3.6758 1.7441,3.6758 -0.5781,3.5683 -0.5801,3.5684 -2.8301,2.8301 -2.8301,2.8301 -3.4492,0.4531 -3.4511,0.4531 -2.1114,-0.9004 c -1.1615,-0.4949 -3.074,-2.1241 -4.25,-3.6191 l -2.1386,-2.7168 0,-4.9649 0,-4.9668 3.4003,-3.3984 3.4004,-3.4004 z m 127.2305,0 2.4375,0 c 1.3405,0 3.5084,0.4872 4.8184,1.084 l 2.3828,1.0859 1.666,2.8184 1.6641,2.8203 0,4.5801 0,4.5801 -2.75,3.0175 -2.75,3.0176 -3,0.4727 -3,0.4726 -2,-0.8574 c -1.1,-0.471 -2.9,-1.8574 -4,-3.0801 l -2,-2.2226 0,-5.9766 0,-5.9766 3.2656,-2.9179 3.2656,-2.918 z m 332.7695,0 3.1485,0 3.1504,0 3.0293,1.5664 3.0293,1.5664 1.4882,3.5606 1.4864,3.5605 -0.6328,3.75 -0.6348,3.75 -2.7188,2.6055 -2.7187,2.6055 -2.9629,0.5566 -2.9648,0.5566 -3.4844,-1.789 -3.4863,-1.7891 -1.25,-2.5 -1.2481,-2.5 -0.016,-4.3496 -0.016,-4.3516 3.4003,-3.3984 3.4004,-3.4004 z m -289.8007,6.7441 4.2382,0.6778 4.2403,0.6777 2.2597,2.125 2.2618,2.1231 0,2.6347 0,2.6348 -1.3321,1.8223 -1.332,1.8222 -5.168,0.4961 -5.1679,0.4961 0,-7.7558 0,-7.754 z"
         id="path3615"
         style="fill:#9bc62e"
         xlink:href="#path3569" />
      <path
         d="m 1645.1322,3345.4322 -2.9325,-1.9332 -1.282,-2.3103 c -0.7051,-1.2706 -1.298,-2.6477 -1.3174,-3.0602 l -0.035,-0.75 4.25,0.032 4.25,0.032 1.9411,1.4682 1.9411,1.4682 2.5589,-0.035 2.5589,-0.035 2.5,-1.4291 2.5,-1.4292 3.75,-0.035 3.75,-0.035 0,1.2775 c 0,0.7026 -0.7024,2.2802 -1.5607,3.5057 l -1.5608,2.2282 -2.8896,1.4943 -2.8896,1.4943 -6.2997,-0.01 -6.2996,-0.01 -2.9326,-1.9332 z m -8.5674,29.9463 0,-20 4.9683,0 4.9682,0 0.2818,11.413 0.2817,11.413 9.84,-11.413 9.84,-11.413 2.41,0 2.41,0 0,20 0,20 -4.5,0 -4.5,0 0,-11 0,-11 -0.75,0 c -0.4125,0 -4.9874,4.9514 -10.1665,11 l -9.4165,10.998 -2.8335,0 -2.8335,0 0,-20 z m -128,4.5 0,-15.5 -7,0 -7,0 0,-4.5 0,-4.5 18.5,0 18.5,0 0,4.5 0,4.5 -6.5,0 -6.5,0 0,15.5 0,15.5 -5,0 -5,0 z m -232.3321,2.9395 1.3321,-1.8218 0,-2.6345 0,-2.6346 -2.2612,-2.1243 -2.2612,-2.1243 -4.2388,-0.6778 -4.2388,-0.6778 0,7.755 0,7.7551 5.1679,-0.4966 5.1679,-0.4966 z m -22.6679,-14.4395 0,-27 14.5,0 14.5,0 0,5 0,5 -9,0 -9,0 0,4.8575 0,4.8576 6.16,0.6438 6.16,0.6439 2.9855,1.7486 c 1.642,0.9617 3.9325,3.0191 5.09,4.5719 l 2.1045,2.8234 0,7.361 0,7.361 -3,3.1888 -3,3.1888 -3.2179,1.3769 -3.2178,1.3768 -10.5322,0 -10.5321,0 z m -226,-27 39,0 0,54 c -10,0 0,0 -10,0 l 0,-45 -18,0 0,45 c -11,0 0,0 -11,0 z m 583.4657,44.5788 3.4015,-1.4212 1.5664,-3.0292 1.5664,-3.0291 -0.015,-3.2996 -0.015,-3.2997 -1.2375,-2.4453 -1.2375,-2.4452 -3.2727,-1.9114 -3.2727,-1.9113 -3.5837,0.6723 -3.5837,0.6723 -2.3292,2.5133 -2.3293,2.5133 -0.6416,2.921 -0.6415,2.921 0.6429,2.9271 0.6429,2.927 2.5134,2.5135 2.5135,2.5135 2.1731,0.4232 c 1.1952,0.2328 2.525,0.4846 2.9552,0.5595 0.4302,0.075 2.3128,-0.5034 4.1836,-1.285 z m -13.0364,8.5839 -4.0708,-1.9044 -3.079,-3.7354 -3.0791,-3.7355 -1.2194,-4.3555 -1.2195,-4.3555 0.6695,-4.4649 0.6696,-4.465 2.1997,-3.2304 c 1.2098,-1.7767 3.9126,-4.6089 6.0061,-6.2938 l 3.8063,-3.0633 6.6937,-0.3564 6.6936,-0.3564 4.5,2.4037 4.5,2.4037 3,4.2593 3,4.2594 0,7.8277 0,7.8277 -3,4.2471 -3,4.2471 -3.9474,2.0395 -3.9473,2.0395 -5.5527,0.3331 -5.5526,0.3331 z m -141.4358,0.9599 c -1.3785,-0.4507 -3.9145,-1.5475 -5.6355,-2.4375 l -3.129,-1.618 -3.9385,-4.4744 -3.9385,-4.4744 -1.176,-3.9251 -1.176,-3.9252 0,-6.268 0,-6.268 1.1888,-3.9678 1.1888,-3.9679 4.2818,-4.7623 4.2818,-4.7624 5.2794,-2.3608 5.2794,-2.3608 7.5,0.046 7.5,0.046 4.5662,2.2027 c 2.5114,1.2115 6.1114,3.5119 8,5.1121 l 3.4338,2.9093 -3.6467,3.697 -3.6468,3.6971 -3.8532,-3.0528 -3.8533,-3.0528 -4.4092,-1.1587 -4.4092,-1.1588 -3.5908,0.6487 -3.5908,0.6487 -3.6288,2.3667 -3.6289,2.3668 -2.1211,4.3817 -2.1212,4.3818 0,4.3685 0,4.3686 1.9852,4.0657 1.9851,4.0657 3.6916,2.5 3.6916,2.5 7.2417,0 7.2417,0 4.711,-3.3207 4.7111,-3.3206 3.3653,3.2617 3.3653,3.2618 -2.2448,2.4041 c -1.2346,1.3222 -4.2384,3.5765 -6.675,5.0095 l -4.4302,2.6055 -8.5698,0.2703 -8.5698,0.2703 z m -55.4935,-0.5518 -4,-1.464 -3.7333,-4.1632 -3.7333,-4.1632 -1.0111,-3.6402 c -1.2859,-4.6294 -1.2766,-7.6843 0.038,-12.4175 l 1.0489,-3.7774 2.9894,-3.4047 2.9894,-3.4047 4.4937,-2.1754 4.4936,-2.1753 7.3994,0.3737 7.3994,0.3736 4.313,3.0313 4.313,3.0313 0,1.3964 0,1.3964 -3.2473,1.8966 -3.2473,1.8965 -4.5671,-2.2109 -4.5671,-2.2109 -3.6621,0.5943 -3.6622,0.5943 -2.5234,1.8652 -2.5235,1.8652 -1.31,4.0494 -1.31,4.0495 1.4765,3.5336 1.4765,3.5337 2.7895,1.8278 2.7896,1.8278 4.7206,0 4.7207,0 2.8168,-2.1031 2.8168,-2.103 3.6908,2.4425 3.6909,2.4424 -0.5515,1.4371 -0.5515,1.4371 -4.4576,2.6124 -4.4577,2.6124 -6.6752,0.3784 -6.6752,0.3785 -4,-1.4639 z m -247.8658,-10.2507 2.1636,-1.4176 1.2302,-2.9701 1.2303,-2.9701 -0.5444,-4.0588 -0.5444,-4.0587 -1.657,-1.831 c -0.9114,-1.0071 -2.9978,-2.3864 -4.6366,-3.0652 l -2.9795,-1.2341 -3.8378,1.1498 -3.8378,1.1498 -1.6864,2.5738 -1.6863,2.5737 -0.5335,3.2874 -0.5335,3.2874 1.6804,3.5413 1.6805,3.5413 3.179,1.5804 3.179,1.5804 2.9853,-0.621 c 1.642,-0.3416 3.959,-1.259 5.1489,-2.0387 z m -15.1428,9.8784 -4.0085,-1.8845 -3.1869,-3.6297 -3.1869,-3.6296 -1.049,-3.7774 c -1.3263,-4.7762 -1.3235,-7.7887 0.012,-12.5981 l 1.061,-3.8208 3.457,-3.8264 3.4569,-3.8264 3.6058,-1.7111 3.6058,-1.711 6.3501,0.4043 6.3502,0.4044 4.2706,2.9673 4.2705,2.9673 2.25,4.4485 2.25,4.4485 0,5.4724 0,5.4723 -2.0989,4.3358 -2.0988,4.3357 -4.5116,3.104 -4.5115,3.104 -6.1396,0.4175 -6.1396,0.4175 z m 427.6553,-10.839 2.719,-2.605 0.6336,-3.7503 0.6336,-3.7503 -1.4877,-3.5606 -1.4876,-3.5605 -3.0292,-1.5664 -3.0291,-1.5664 -3.1496,0 -3.1497,0 -3.4,3.4 -3.4,3.4 0.015,4.35 0.015,4.35 1.2492,2.5 1.2491,2.5 3.4861,1.7892 3.4861,1.7893 2.9639,-0.557 2.9638,-0.557 2.719,-2.605 z m -28.1467,-0.8595 0,-27.5 5,0 5,0 0,1.9699 0,1.9698 3.6396,-2.4698 3.6395,-2.4699 5.4101,0 5.4101,0 2.8019,1.4489 c 1.5411,0.7969 4.1621,2.9981 5.8246,4.8916 l 3.0227,3.4426 1.234,5.1439 1.234,5.1438 -0.65,4.3347 -0.6501,4.3348 -2.8448,4.4857 -2.8448,4.4858 -4.6789,2.265 -4.679,2.2651 -4.8067,-0.4619 -4.8067,-0.4619 -3.1277,-2.2271 -3.1278,-2.2272 0,9.5681 0,9.5681 -5,0 -5,0 z m -189,27.0704 c 0,-0.2938 1.7893,-4.4069 3.9761,-9.1404 l 3.9761,-8.6063 -7.4761,-17.9464 c -4.1118,-9.8706 -7.4761,-18.1794 -7.4761,-18.4641 0,-0.2848 2.3401,-0.3817 5.2003,-0.2155 l 5.2002,0.3023 4.7328,11.5 4.7328,11.5 0.817,-0.491 c 0.4493,-0.27 3.0888,-5.445 5.8655,-11.5 l 5.0487,-11.009 5.2013,-0.3023 c 2.8608,-0.1662 5.2014,-0.1377 5.2014,0.063 0,0.2011 -5.5733,12.4871 -12.3852,27.3023 l -12.3853,26.9368 -5.1147,0.3023 -5.1148,0.3022 0,-0.5341 z m -24.911,-26.1556 2.7767,-2.6603 0.6336,-3.7503 0.6336,-3.7503 -1.5112,-3.6168 -1.5111,-3.6167 -3.4441,-1.6424 -3.444,-1.6423 -3.551,0.6661 -3.5509,0.6662 -2.5603,3.0427 -2.5603,3.0428 0,4.489 0,4.489 1.0638,1.9878 1.0639,1.9877 3.1861,1.9943 3.1862,1.9943 3.4061,-0.5102 3.4061,-0.5103 z m -28.089,-0.9148 0,-27.5 5,0 5,0 0,1.9699 0,1.9698 3.6396,-2.4698 3.6395,-2.4699 4.8926,0 4.8926,0 3.2334,1.351 3.2336,1.3511 3.1086,3.5405 3.1086,3.5405 1.234,5.1439 1.234,5.1438 -0.65,4.3347 -0.6501,4.3348 -2.8448,4.4857 -2.8448,4.4858 -4.6789,2.265 -4.679,2.2651 -4.8067,-0.4619 -4.8067,-0.4619 -3.1277,-2.2271 -3.1278,-2.2272 0,9.5681 0,9.5681 -5,0 -5,0 z m -63.75,0.4867 2.75,-3.0182 0,-4.58 0,-4.5799 -1.6653,-2.8191 -1.6652,-2.8191 -2.3818,-1.0852 c -1.31,-0.5968 -3.4785,-1.0852 -4.819,-1.0852 l -2.4371,0 -3.2658,2.918 -3.2658,2.9179 0,5.9771 0,5.977 2,2.223 c 1.1,1.2227 2.9,2.6085 4,3.0795 l 2,0.8564 3,-0.472 3,-0.4719 z m -32.23,2.503 2.9207,-1.5104 1.0297,-1.9239 1.0296,-1.9239 0,-4.6154 0,-4.6154 -1.4528,-2.8095 -1.4529,-2.8095 -3.0804,-1.276 -3.0805,-1.2759 -3.1986,0.9173 -3.1986,0.9174 -2.2681,3.3656 -2.2681,3.3657 0,2.7029 c 0,1.4866 0.5088,4.1624 1.1307,5.9462 l 1.1306,3.2434 3.1194,1.9021 c 3.7717,2.2999 5.8013,2.384 9.6393,0.3993 z m 4.98,15.6181 0,-8.8922 -3.75,1.9582 -3.75,1.9583 -5.2598,-0.3991 -5.2599,-0.3992 -3.7401,-2.9748 -3.7402,-2.9749 -2.25,-4.404 -2.25,-4.4039 0,-5.3202 0,-5.3202 1.5531,-3.7179 1.553,-3.7179 2.697,-2.8393 c 1.4833,-1.5616 3.9121,-3.4741 5.3973,-4.25 l 2.7003,-1.4107 4.3382,0 4.3382,0 3.7115,1.8922 3.7114,1.8922 0,-9.3922 0,-9.3922 5,0 5,0 0,9.484 0,9.4839 4.0379,-2.1046 4.0378,-2.1047 5.39,0.447 5.39,0.447 3.5814,2.7316 3.5814,2.7317 2.0672,4.052 2.0672,4.0521 0.069,6.14 0.069,6.14 -1.5058,3.5 -1.5058,3.5 -2.89,2.89 -2.89,2.89 -3.2179,1.36 -3.2178,1.36 -3.572,0 -3.572,0 -3.9601,-2.0203 -3.9602,-2.0203 0,9.0203 0,9.0203 -5,0 -5,0 0,-8.8922 z m -98.7692,-17.877 2.8299,-2.8299 0.5791,-3.5687 0.5791,-3.5686 -1.7443,-3.6759 -1.7443,-3.6758 -2.8155,-1.4559 -2.8155,-1.456 -3.1496,0 -3.1497,0 -3.4,3.4 -3.4,3.4 0,4.9651 0,4.9652 2.1381,2.7182 c 1.176,1.495 3.0885,3.1231 4.25,3.618 l 2.1119,0.8999 3.4504,-0.4529 3.4505,-0.4528 z m -28.2308,-0.7308 0,-27.5 5,0 5,0 0,1.9699 0,1.9698 3.6396,-2.4698 3.6395,-2.4699 5.4101,0 5.4101,0 2.8019,1.4489 c 1.5411,0.7969 4.1621,2.9981 5.8246,4.8916 l 3.0227,3.4426 1.234,5.1439 1.234,5.1438 -0.65,4.3347 -0.6501,4.3348 -2.8448,4.4857 -2.8448,4.4858 -4.6789,2.265 -4.679,2.2651 -4.8067,-0.4619 -4.8067,-0.4619 -3.1277,-2.2271 -3.1278,-2.2272 0,9.5681 0,9.5681 -5,0 -5,0 z"
         style="fill:#6f7072"
         id="path3569" />
      <path
         id="path3567"
         d="m 1252.6145,3155.9092 c 140.9503,168.0156 0,0 140.9503,168.0156 -43.5494,0.4537 0,0 -43.5494,0.4537 l -96.975,-112.5 -98.0499,114 c -46.5998,0.5373 0,0 -46.5998,0.5373 z"
         style="fill:#6f7072" />
      <path
         id="path3565"
         d="m 1394.4112,3170.2611 -57.3494,66.1174 -31.7617,-37.4562 87.6763,-104.1122 c 28.935,33.0614 53.7263,65.1802 78.5052,93.0684 0.028,-17.5 0.055,-35 0.083,-52.5 l 32,0 0,91.2106 81.1449,96.7894 -59.6449,-0.085 z"
         style="fill:#9bc62e" />
      <path
         id="path3563"
         d="m 1230.5648,3288.3785 c 5.6667,0 11.3333,0 17,0 0,5.6667 0,11.3333 0,17 l -17,0 c 0,-5.6667 0,-11.3333 0,-17 z"
         style="fill:#6f7072" />
      <path
         id="path3561"
         d="m 1254.5648,3288.3785 c 17,0 0,0 17,0 0,17 0,0 0,17 -17,0 0,0 -17,0 0,-17 0,0 0,-17 z"
         style="fill:#6f7072" />
      <path
         id="path3559"
         d="m 1396.5648,3275.3786 23,-1e-4 0,22 -23,0 z"
         style="fill:#9bc62e" />
      <path
         id="path3557"
         d="m 1369.7933,3275.3786 16.7715,0 0,19.378 c -16.7715,-19.378 0,0 -16.7715,-19.378 z"
         style="fill:#9bc62e" />
      <path
         id="path3555"
         d="m 1230.5648,3259.3785 c 5.6667,0 11.3333,0 17,0 0,6 0,12 0,18 -5.6667,0 -11.3333,0 -17,0 0,-6 0,-12 0,-18 z"
         style="fill:#6f7072" />
      <path
         id="path3553"
         d="m 1254.5648,3259.3785 c 17,0 0,0 17,0 0,18 0,0 0,18 -17,0 0,0 -17,0 0,-18 0,0 0,-18 z"
         style="fill:#6f7072" />
      <path
         id="path3551"
         d="m 1363.5648,3236.3785 23,0 0,23.0001 -23,-1e-4 z"
         style="fill:#9bc62e" />
      <path
         id="path3733"
         d="m 1396.5648,3236.3785 23,0 0,23 -23,0 z"
         style="fill:#9bc62e" />
    </g>
  </g>
</svg>
